<svg width="146" height="24" viewBox="0 0 146 24" fill="none" xmlns="http://www.w3.org/2000/svg">
<path d="M0.56 23.28V6.096H3.296L3.632 7.8C4.016 7.272 4.52 6.808 5.144 6.408C5.784 6.008 6.608 5.808 7.616 5.808C8.736 5.808 9.736 6.08 10.616 6.624C11.496 7.168 12.192 7.912 12.704 8.856C13.216 9.8 13.472 10.872 13.472 12.072C13.472 13.272 13.216 14.344 12.704 15.288C12.192 16.216 11.496 16.952 10.616 17.496C9.736 18.024 8.736 18.288 7.616 18.288C6.72 18.288 5.936 18.12 5.264 17.784C4.592 17.448 4.048 16.976 3.632 16.368V23.28H0.56ZM6.968 15.6C7.944 15.6 8.752 15.272 9.392 14.616C10.032 13.96 10.352 13.112 10.352 12.072C10.352 11.032 10.032 10.176 9.392 9.504C8.752 8.832 7.944 8.496 6.968 8.496C5.976 8.496 5.16 8.832 4.52 9.504C3.896 10.16 3.584 11.008 3.584 12.048C3.584 13.088 3.896 13.944 4.52 14.616C5.16 15.272 5.976 15.6 6.968 15.6ZM19.4082 18.288C18.2562 18.288 17.2162 18.024 16.2882 17.496C15.3762 16.968 14.6482 16.24 14.1042 15.312C13.5762 14.368 13.3122 13.28 13.3122 12.048C13.3122 10.816 13.5842 9.736 14.1282 8.808C14.6722 7.864 15.4002 7.128 16.3122 6.6C17.2402 6.072 18.2802 5.808 19.4323 5.808C20.5683 5.808 21.5923 6.072 22.5042 6.6C23.4322 7.128 24.1602 7.864 24.6882 8.808C25.2323 9.736 25.5043 10.816 25.5043 12.048C25.5043 13.28 25.2323 14.368 24.6882 15.312C24.1602 16.24 23.4322 16.968 22.5042 17.496C21.5762 18.024 20.5442 18.288 19.4082 18.288ZM19.4082 15.624C20.2082 15.624 20.9042 15.328 21.4962 14.736C22.0882 14.128 22.3842 13.232 22.3842 12.048C22.3842 10.864 22.0882 9.976 21.4962 9.384C20.9042 8.776 20.2162 8.472 19.4323 8.472C18.6163 8.472 17.9122 8.776 17.3202 9.384C16.7442 9.976 16.4562 10.864 16.4562 12.048C16.4562 13.232 16.7442 14.128 17.3202 14.736C17.9122 15.328 18.6082 15.624 19.4082 15.624ZM30.6509 18.288C29.5949 18.288 28.6669 18.12 27.8669 17.784C27.0669 17.432 26.4269 16.952 25.9469 16.344C25.4669 15.736 25.1789 15.032 25.0829 14.232H28.1789C28.2749 14.696 28.5309 15.096 28.9469 15.432C29.3789 15.752 29.9309 15.912 30.6029 15.912C31.2749 15.912 31.7629 15.776 32.0669 15.504C32.3869 15.232 32.5469 14.92 32.5469 14.568C32.5469 14.056 32.3229 13.712 31.8749 13.536C31.4269 13.344 30.8029 13.16 30.0029 12.984C29.4909 12.872 28.9709 12.736 28.4429 12.576C27.9149 12.416 27.4269 12.216 26.9789 11.976C26.5469 11.72 26.1949 11.4 25.9229 11.016C25.6509 10.616 25.5149 10.128 25.5149 9.552C25.5149 8.496 25.9309 7.608 26.7629 6.888C27.6109 6.168 28.7949 5.808 30.3149 5.808C31.7229 5.808 32.8429 6.136 33.6749 6.792C34.5229 7.448 35.0269 8.352 35.1869 9.504H32.2829C32.1069 8.624 31.4429 8.184 30.2909 8.184C29.7149 8.184 29.2669 8.296 28.9469 8.52C28.6429 8.744 28.4909 9.024 28.4909 9.36C28.4909 9.712 28.7229 9.992 29.1869 10.2C29.6509 10.408 30.2669 10.6 31.0349 10.776C31.8669 10.968 32.6269 11.184 33.3149 11.424C34.0189 11.648 34.5789 11.992 34.9949 12.456C35.4109 12.904 35.6189 13.552 35.6189 14.4C35.6349 15.136 35.4429 15.8 35.0429 16.392C34.6429 16.984 34.0669 17.448 33.3149 17.784C32.5629 18.12 31.6749 18.288 30.6509 18.288ZM40.7493 18C39.5013 18 38.5013 17.696 37.7493 17.088C36.9973 16.48 36.6213 15.4 36.6213 13.848V8.664H34.5813V6.096H36.6213L36.9813 2.904H39.6933V6.096H42.9093V8.664H39.6933V13.872C39.6933 14.448 39.8133 14.848 40.0533 15.072C40.3093 15.28 40.7413 15.384 41.3493 15.384H42.8373V18H40.7493ZM47.4909 18.288C46.0029 18.288 44.8509 17.824 44.0349 16.896C43.2349 15.968 42.8349 14.608 42.8349 12.816V6.096H45.8829V12.528C45.8829 13.552 46.0909 14.336 46.5069 14.88C46.9229 15.424 47.5789 15.696 48.4749 15.696C49.3229 15.696 50.0189 15.392 50.5629 14.784C51.1229 14.176 51.4029 13.328 51.4029 12.24V6.096H54.4749V18H51.7629L51.5229 15.984C51.1549 16.688 50.6189 17.248 49.9149 17.664C49.2269 18.08 48.4189 18.288 47.4909 18.288ZM55.1084 18V6.096H57.8444L58.1324 8.328C58.5644 7.56 59.1484 6.952 59.8844 6.504C60.6364 6.04 61.5164 5.808 62.5244 5.808V9.048H61.6604C60.9884 9.048 60.3884 9.152 59.8604 9.36C59.3324 9.568 58.9164 9.928 58.6124 10.44C58.3244 10.952 58.1804 11.664 58.1804 12.576V18H55.1084ZM67.6771 18.288C66.4771 18.288 65.4131 18.032 64.4851 17.52C63.5571 17.008 62.8291 16.288 62.3011 15.36C61.7731 14.432 61.5091 13.36 61.5091 12.144C61.5091 10.912 61.7651 9.816 62.2771 8.856C62.8051 7.896 63.5251 7.152 64.4371 6.624C65.3651 6.08 66.4531 5.808 67.7011 5.808C68.8691 5.808 69.9011 6.064 70.7971 6.576C71.6931 7.088 72.3891 7.792 72.8851 8.688C73.3971 9.568 73.6531 10.552 73.6531 11.64C73.6531 11.816 73.6451 12 73.6291 12.192C73.6291 12.384 73.6211 12.584 73.6051 12.792H64.5571C64.6211 13.72 64.9411 14.448 65.5171 14.976C66.1091 15.504 66.8211 15.768 67.6531 15.768C68.2771 15.768 68.7971 15.632 69.2131 15.36C69.6451 15.072 69.9651 14.704 70.1731 14.256H73.2931C73.0691 15.008 72.6931 15.696 72.1651 16.32C71.6531 16.928 71.0131 17.408 70.2451 17.76C69.4931 18.112 68.6371 18.288 67.6771 18.288ZM67.7011 8.304C66.9491 8.304 66.2851 8.52 65.7091 8.952C65.1331 9.368 64.7651 10.008 64.6051 10.872H70.5331C70.4851 10.088 70.1971 9.464 69.6691 9C69.1411 8.536 68.4851 8.304 67.7011 8.304ZM73.7169 23.28V6.096H76.4529L76.7889 7.8C77.1729 7.272 77.6769 6.808 78.3009 6.408C78.9409 6.008 79.7649 5.808 80.7729 5.808C81.8929 5.808 82.8929 6.08 83.7729 6.624C84.6529 7.168 85.3489 7.912 85.8609 8.856C86.3729 9.8 86.6289 10.872 86.6289 12.072C86.6289 13.272 86.3729 14.344 85.8609 15.288C85.3489 16.216 84.6529 16.952 83.7729 17.496C82.8929 18.024 81.8929 18.288 80.7729 18.288C79.8769 18.288 79.0929 18.12 78.4209 17.784C77.7489 17.448 77.2049 16.976 76.7889 16.368V23.28H73.7169ZM80.1249 15.6C81.1009 15.6 81.9089 15.272 82.5489 14.616C83.1889 13.96 83.5089 13.112 83.5089 12.072C83.5089 11.032 83.1889 10.176 82.5489 9.504C81.9089 8.832 81.1009 8.496 80.1249 8.496C79.1329 8.496 78.3169 8.832 77.6769 9.504C77.0529 10.16 76.7409 11.008 76.7409 12.048C76.7409 13.088 77.0529 13.944 77.6769 14.616C78.3169 15.272 79.1329 15.6 80.1249 15.6ZM92.6371 18.288C91.4371 18.288 90.3731 18.032 89.4451 17.52C88.5171 17.008 87.7891 16.288 87.2611 15.36C86.7331 14.432 86.4691 13.36 86.4691 12.144C86.4691 10.912 86.7251 9.816 87.2371 8.856C87.7651 7.896 88.4851 7.152 89.3971 6.624C90.3251 6.08 91.4131 5.808 92.6611 5.808C93.8291 5.808 94.8611 6.064 95.7571 6.576C96.6531 7.088 97.3491 7.792 97.8451 8.688C98.3571 9.568 98.6131 10.552 98.6131 11.64C98.6131 11.816 98.6051 12 98.5891 12.192C98.5891 12.384 98.5811 12.584 98.5651 12.792H89.5171C89.5811 13.72 89.9011 14.448 90.4771 14.976C91.0691 15.504 91.7811 15.768 92.6131 15.768C93.2371 15.768 93.7571 15.632 94.1731 15.36C94.6051 15.072 94.9251 14.704 95.1331 14.256H98.2531C98.0291 15.008 97.6531 15.696 97.1251 16.32C96.6131 16.928 95.9731 17.408 95.2051 17.76C94.4531 18.112 93.5971 18.288 92.6371 18.288ZM92.6611 8.304C91.9091 8.304 91.2451 8.52 90.6691 8.952C90.0931 9.368 89.7251 10.008 89.5651 10.872H95.4931C95.4451 10.088 95.1571 9.464 94.6291 9C94.1011 8.536 93.4451 8.304 92.6611 8.304ZM98.6769 18V6.096H101.413L101.701 8.328C102.133 7.56 102.717 6.952 103.453 6.504C104.205 6.04 105.085 5.808 106.093 5.808V9.048H105.229C104.557 9.048 103.957 9.152 103.429 9.36C102.901 9.568 102.485 9.928 102.181 10.44C101.893 10.952 101.749 11.664 101.749 12.576V18H98.6769ZM106.225 18V8.664H104.593V6.096H106.225V4.704C106.225 3.264 106.585 2.24 107.305 1.632C108.041 1.024 109.033 0.719999 110.281 0.719999H111.601V3.336H110.761C110.233 3.336 109.857 3.44 109.633 3.648C109.409 3.856 109.297 4.208 109.297 4.704V6.096H111.865V8.664H109.297V18H106.225ZM117.093 18.288C115.893 18.288 114.829 18.032 113.901 17.52C112.973 17.008 112.245 16.288 111.717 15.36C111.189 14.432 110.925 13.36 110.925 12.144C110.925 10.912 111.181 9.816 111.693 8.856C112.221 7.896 112.941 7.152 113.853 6.624C114.781 6.08 115.869 5.808 117.117 5.808C118.285 5.808 119.317 6.064 120.213 6.576C121.109 7.088 121.805 7.792 122.301 8.688C122.813 9.568 123.069 10.552 123.069 11.64C123.069 11.816 123.061 12 123.045 12.192C123.045 12.384 123.037 12.584 123.021 12.792H113.973C114.037 13.72 114.357 14.448 114.933 14.976C115.525 15.504 116.237 15.768 117.069 15.768C117.693 15.768 118.213 15.632 118.629 15.36C119.061 15.072 119.381 14.704 119.589 14.256H122.709C122.485 15.008 122.109 15.696 121.581 16.32C121.069 16.928 120.429 17.408 119.661 17.76C118.909 18.112 118.053 18.288 117.093 18.288ZM117.117 8.304C116.365 8.304 115.701 8.52 115.125 8.952C114.549 9.368 114.181 10.008 114.021 10.872H119.949C119.901 10.088 119.613 9.464 119.085 9C118.557 8.536 117.901 8.304 117.117 8.304ZM128.965 18.288C127.749 18.288 126.677 18.024 125.749 17.496C124.821 16.968 124.085 16.232 123.541 15.288C123.013 14.344 122.749 13.264 122.749 12.048C122.749 10.832 123.013 9.752 123.541 8.808C124.085 7.864 124.821 7.128 125.749 6.6C126.677 6.072 127.749 5.808 128.965 5.808C130.485 5.808 131.765 6.208 132.805 7.008C133.845 7.792 134.509 8.88 134.797 10.272H131.557C131.397 9.696 131.077 9.248 130.597 8.928C130.133 8.592 129.581 8.424 128.941 8.424C128.093 8.424 127.373 8.744 126.781 9.384C126.189 10.024 125.893 10.912 125.893 12.048C125.893 13.184 126.189 14.072 126.781 14.712C127.373 15.352 128.093 15.672 128.941 15.672C129.581 15.672 130.133 15.512 130.597 15.192C131.077 14.872 131.397 14.416 131.557 13.824H134.797C134.509 15.168 133.845 16.248 132.805 17.064C131.765 17.88 130.485 18.288 128.965 18.288ZM140.143 18C138.895 18 137.895 17.696 137.143 17.088C136.391 16.48 136.015 15.4 136.015 13.848V8.664H133.975V6.096H136.015L136.375 2.904H139.087V6.096H142.303V8.664H139.087V13.872C139.087 14.448 139.207 14.848 139.447 15.072C139.703 15.28 140.135 15.384 140.743 15.384H142.231V18H140.143ZM143.741 18.168C143.181 18.168 142.717 17.992 142.349 17.64C141.997 17.288 141.821 16.864 141.821 16.368C141.821 15.856 141.997 15.424 142.349 15.072C142.717 14.72 143.181 14.544 143.741 14.544C144.301 14.544 144.757 14.72 145.109 15.072C145.477 15.424 145.661 15.856 145.661 16.368C145.661 16.864 145.477 17.288 145.109 17.64C144.757 17.992 144.301 18.168 143.741 18.168Z" fill="url(#paint0_linear)"/>
<defs>
<linearGradient id="paint0_linear" x1="-1" y1="12.5002" x2="147" y2="12.5002" gradientUnits="userSpaceOnUse">
<stop/>
<stop offset="1"/>
</linearGradient>
</defs>
</svg>
